<?xml version="1.0" encoding="UTF-8"?><svg id="b" xmlns="http://www.w3.org/2000/svg" viewBox="0 0 876.11 838.66"><g id="c"><path d="M295.2,559.86c64.69-7.64,180.74,13.93,236.51,48.8,10.35,6.47,38.73,22.38,33.67,37.7-6.3,19.06-32.8-10.77-41.96-15.63-57.67-30.62-152.25-53.07-217.38-46.27-12.77,1.33-54.17,20.57-56.16,3.44-2.26-19.44,31.91-26.44,45.33-28.03Z"/><path d="M196.5,534.35c30.84-5.16-19.34,52.48-16.93,75.33,1.22,11.59,23.53,34.51.49,32.05-37.19-3.97-15.93-101.97,16.44-107.38Z"/><path d="M618.24,614.47c20.33-9.72,17.56,36.82,15.33,47.5-2.66,12.71-36.73,68.88-52.08,62.21-14.72-6.4,27.3-48.4,31.42-64.52,2.55-9.98.51-42.88,5.33-45.19Z"/><path d="M428.23.16c333.98-8.56,564.72,320.19,385.36,621.62-109.68,184.32-304.72,252.34-510.57,199.51C-175.73,698.44-52.05,12.47,428.23.16Z" fill="#532473"/><path d="M719.15,695.94C1019.51,395.85,747.76-42.07,348.34,39.55-15.16,113.83-102.08,650.63,266.32,780.01c161.52,56.72,328.81,39.83,452.83-84.07Z"/><path d="M265.69,345.95c3.47,4.4-2,34.47,27.05,40.61,33.46,7.08,40.43-18.04,48.17-20.18,3.21-.89,35.71,5.58,34.99,10.38-.55,3.65-24.15,25-29.04,28.32-41.06,27.79-96.97,27.9-136.84-2.3-16.09-12.19-45.45-53.59-27.02-71.71,3-2.94,80.09,11.58,82.69,14.87Z" fill="#fff"/><path d="M616.52,414.89c5.56,7.81-1.28,36.73,31.86,40.59,27.62,3.22,38.58-23.36,47.57-24.73,3.25-.49,44.37,7.77,44.38,12.2,0,3.05-14.53,22.42-17.96,25.67-43.01,40.82-137.3,34.77-166.24-19.72-4.28-8.06-15.49-43.87-4.8-47.62,3.14-1.1,63.27,10.88,65.2,13.59Z" fill="#fff"/><path d="M719.15,695.94c-124.02,123.9-291.31,140.79-452.83,84.07C-102.08,650.63-15.16,113.83,348.34,39.55c399.42-81.62,671.17,356.31,370.81,656.39Z" fill="#f06bf2" stroke="#532436" stroke-miterlimit="10" stroke-width="5"/><path d="M162.6,325.22c.92,1.33-4.56,12.58-4.59,17.17-.72,108.09,142.71,131.64,214.52,72.31,7.3-6.03,30.18-35.5,32.46-36.35,20.63-7.66,31.75,3.26,57.89-17.81,25.29-20.38,42.24-86.73,7.05-68.62-10.39,5.35-.97,57.17-54.46,60.15-61.15,3.41-188.5-53.71-256.46-56.78-45.07,14.28,2.09,27.77,3.58,29.93Z" fill="#f06bf2"/><path d="M529.62,396.31c2.66,3.15-10.48,44.96,17.36,77.8,42.92,50.62,149.26,57.57,194.55,6.8,13.78-15.45,16.02-31.21,25.53-45.58,7.02-10.6,22.73-13.98,29.13-32.81,3.81-11.2,9.19-51.35-3.42-57.4-22.52-10.82-1.25,61.25-39.65,67.09-46.84,7.12-177.54-42.6-231.92-44.97-40.4,14.69,6.76,27.11,8.42,29.07Z" fill="#f06bf2"/><path d="M196.5,534.35c-32.37,5.41-53.63,103.41-16.44,107.38,23.05,2.46.74-20.46-.49-32.05-2.41-22.85,47.77-80.49,16.93-75.33Z" fill="#532473"/><path d="M295.2,559.86c-13.42,1.59-47.59,8.59-45.33,28.03,1.99,17.13,43.39-2.1,56.16-3.44,65.13-6.81,159.71,15.64,217.38,46.27,9.17,4.87,35.66,34.69,41.96,15.63,5.06-15.32-23.31-31.22-33.67-37.7-55.77-34.87-171.82-56.44-236.51-48.8Z" fill="#532473"/><path d="M618.24,614.47c-4.82,2.31-2.78,35.21-5.33,45.19-4.12,16.13-46.14,58.13-31.42,64.52,15.35,6.67,49.42-49.5,52.08-62.21,2.23-10.68,5-57.22-15.33-47.5Z" fill="#532473"/><path d="M162.6,325.22c-1.5-2.16-48.65-15.65-3.58-29.93,67.97,3.07,195.32,60.19,256.46,56.78,53.49-2.98,44.07-54.81,54.46-60.15,35.19-18.11,18.24,48.24-7.05,68.62-26.14,21.06-37.26,10.14-57.89,17.81-2.28.85-25.17,30.32-32.46,36.35-71.8,59.33-215.24,35.78-214.52-72.31.03-4.59,5.51-15.85,4.59-17.17Z" fill="#532473"/><path d="M265.69,345.95c-2.6-3.3-79.7-17.82-82.69-14.87-18.44,18.12,10.92,59.52,27.02,71.71,39.87,30.2,95.78,30.09,136.84,2.3,4.89-3.31,28.49-24.67,29.04-28.32.72-4.8-31.77-11.27-34.99-10.38-7.74,2.14-14.71,27.26-48.17,20.18-29.04-6.14-23.58-36.22-27.05-40.61Z" fill="#79f2e6" stroke="#532450" stroke-miterlimit="10" stroke-width="5"/><path d="M529.62,396.31c-1.66-1.96-48.82-14.38-8.42-29.07,54.38,2.37,185.08,52.1,231.92,44.97,38.41-5.84,17.14-77.9,39.65-67.09,12.61,6.06,7.22,46.2,3.42,57.4-6.4,18.83-22.11,22.21-29.13,32.81-9.51,14.37-11.74,30.13-25.53,45.58-45.3,50.76-151.63,43.82-194.55-6.8-27.85-32.84-14.7-74.65-17.36-77.8Z" fill="#532473"/><path d="M616.52,414.89c-1.93-2.71-62.05-14.69-65.2-13.59-10.69,3.74.52,39.55,4.8,47.62,28.94,54.49,123.24,60.53,166.24,19.72,3.43-3.25,17.96-22.62,17.96-25.67,0-4.44-41.12-12.7-44.38-12.2-8.99,1.37-19.95,27.95-47.57,24.73-33.14-3.86-26.3-32.78-31.86-40.59Z" fill="#79f2e6" stroke="#53243f" stroke-miterlimit="10" stroke-width="5"/></g></svg>